<?xml version="1.0" encoding="UTF-8" standalone="no"?>
<!DOCTYPE svg PUBLIC "-//W3C//DTD SVG 1.1//EN"
 "http://www.w3.org/Graphics/SVG/1.1/DTD/svg11.dtd">
<!-- Generated by graphviz version 2.40.1 (20161225.0304)
 -->
<!-- Title: G Pages: 1 -->
<svg width="440pt" height="166pt"
 viewBox="0.00 0.00 440.00 166.41" xmlns="http://www.w3.org/2000/svg" xmlns:xlink="http://www.w3.org/1999/xlink">
<g id="graph0" class="graph" transform="scale(1 1) rotate(0) translate(4 162.4079)">
<title>G</title>
<polygon fill="#ffffff" stroke="transparent" points="-4,4 -4,-162.4079 436,-162.4079 436,4 -4,4"/>
<!-- A -->
<g id="node1" class="node">
<title>A</title>
<ellipse fill="none" stroke="#000000" cx="108" cy="-140.4" rx="18.0157" ry="18.0157"/>
<text text-anchor="middle" x="108" y="-136.2" font-family="Times,serif" font-size="14.00" fill="#000000">A</text>
</g>
<!-- B -->
<g id="node2" class="node">
<title>B</title>
<ellipse fill="none" stroke="#000000" cx="234" cy="-140.4" rx="18" ry="18"/>
<text text-anchor="middle" x="234" y="-136.2" font-family="Times,serif" font-size="14.00" fill="#000000">B</text>
</g>
<!-- A&#45;&gt;B -->
<g id="edge1" class="edge">
<title>A&#45;&gt;B</title>
<path fill="none" stroke="#000000" d="M126.0527,-140.4C146.9177,-140.4 181.5072,-140.4 205.8994,-140.4"/>
<polygon fill="#000000" stroke="#000000" points="205.9808,-143.9001 215.9808,-140.4 205.9807,-136.9001 205.9808,-143.9001"/>
</g>
<!-- E -->
<g id="node5" class="node">
<title>E</title>
<ellipse fill="none" stroke="#000000" cx="18" cy="-18" rx="18" ry="18"/>
<text text-anchor="middle" x="18" y="-13.8" font-family="Times,serif" font-size="14.00" fill="#000000">E</text>
</g>
<!-- A&#45;&gt;E -->
<g id="edge2" class="edge">
<title>A&#45;&gt;E</title>
<path fill="none" stroke="#000000" d="M97.3224,-125.8785C81.8279,-104.806 52.9674,-65.5557 34.66,-40.6575"/>
<polygon fill="#000000" stroke="#000000" points="37.4074,-38.4858 28.6637,-32.5026 31.7679,-42.6326 37.4074,-38.4858"/>
</g>
<!-- F -->
<g id="node6" class="node">
<title>F</title>
<ellipse fill="none" stroke="#000000" cx="414" cy="-18" rx="18" ry="18"/>
<text text-anchor="middle" x="414" y="-13.8" font-family="Times,serif" font-size="14.00" fill="#000000">F</text>
</g>
<!-- B&#45;&gt;F -->
<g id="edge3" class="edge">
<title>B&#45;&gt;F</title>
<path fill="none" stroke="#000000" d="M249.0371,-130.1748C280.4047,-108.8448 353.0111,-59.4725 390.5629,-33.9372"/>
<polygon fill="#000000" stroke="#000000" points="392.5779,-36.7996 398.8791,-28.2822 388.6417,-31.0111 392.5779,-36.7996"/>
</g>
<!-- C -->
<g id="node3" class="node">
<title>C</title>
<ellipse fill="none" stroke="#000000" cx="234" cy="-68.4" rx="18" ry="18"/>
<text text-anchor="middle" x="234" y="-64.2" font-family="Times,serif" font-size="14.00" fill="#000000">C</text>
</g>
<!-- C&#45;&gt;A -->
<g id="edge4" class="edge">
<title>C&#45;&gt;A</title>
<path fill="none" stroke="#000000" d="M218.2968,-77.3733C196.7927,-89.6613 157.9632,-111.8496 132.5853,-126.3513"/>
<polygon fill="#000000" stroke="#000000" points="130.8471,-123.3133 123.9011,-131.3136 134.3201,-129.3911 130.8471,-123.3133"/>
</g>
<!-- C&#45;&gt;B -->
<g id="edge5" class="edge">
<title>C&#45;&gt;B</title>
<path fill="none" stroke="#000000" d="M234,-86.5686C234,-94.269 234,-103.4257 234,-111.9834"/>
<polygon fill="#000000" stroke="#000000" points="230.5001,-111.9867 234,-121.9867 237.5001,-111.9868 230.5001,-111.9867"/>
</g>
<!-- D -->
<g id="node4" class="node">
<title>D</title>
<ellipse fill="none" stroke="#000000" cx="108" cy="-68.4" rx="18.0157" ry="18.0157"/>
<text text-anchor="middle" x="108" y="-64.2" font-family="Times,serif" font-size="14.00" fill="#000000">D</text>
</g>
<!-- D&#45;&gt;A -->
<g id="edge6" class="edge">
<title>D&#45;&gt;A</title>
<path fill="none" stroke="#000000" d="M108,-86.5686C108,-94.269 108,-103.4257 108,-111.9834"/>
<polygon fill="#000000" stroke="#000000" points="104.5001,-111.9867 108,-121.9867 111.5001,-111.9868 104.5001,-111.9867"/>
</g>
<!-- D&#45;&gt;C -->
<g id="edge7" class="edge">
<title>D&#45;&gt;C</title>
<path fill="none" stroke="#000000" d="M126.0527,-68.4C146.9177,-68.4 181.5072,-68.4 205.8994,-68.4"/>
<polygon fill="#000000" stroke="#000000" points="205.9808,-71.9001 215.9808,-68.4 205.9807,-64.9001 205.9808,-71.9001"/>
</g>
<!-- E&#45;&gt;D -->
<g id="edge8" class="edge">
<title>E&#45;&gt;D</title>
<path fill="none" stroke="#000000" d="M34.0902,-27.0105C47.6563,-34.6075 67.3014,-45.6088 82.9285,-54.36"/>
<polygon fill="#000000" stroke="#000000" points="81.6139,-57.6352 92.0491,-59.4675 85.0342,-51.5276 81.6139,-57.6352"/>
</g>
<!-- F&#45;&gt;C -->
<g id="edge9" class="edge">
<title>F&#45;&gt;C</title>
<path fill="none" stroke="#000000" d="M396.4131,-22.9243C364.8777,-31.7542 298.5219,-50.3339 261.1213,-60.806"/>
<polygon fill="#000000" stroke="#000000" points="260.0792,-57.4631 251.3933,-63.5299 261.9666,-64.2039 260.0792,-57.4631"/>
</g>
<!-- F&#45;&gt;E -->
<g id="edge10" class="edge">
<title>F&#45;&gt;E</title>
<path fill="none" stroke="#000000" d="M395.9557,-18C333.0782,-18 123.2839,-18 46.4832,-18"/>
<polygon fill="#000000" stroke="#000000" points="46.1503,-14.5001 36.1503,-18 46.1503,-21.5001 46.1503,-14.5001"/>
</g>
</g>
</svg>
