<?xml version="1.0" encoding="UTF-8" standalone="no"?>
<!DOCTYPE svg PUBLIC "-//W3C//DTD SVG 1.1//EN"
 "http://www.w3.org/Graphics/SVG/1.1/DTD/svg11.dtd">
<!-- Generated by graphviz version 2.40.1 (20161225.0304)
 -->
<!-- Title: G Pages: 1 -->
<svg width="332pt" height="190pt"
 viewBox="0.00 0.00 332.01 189.62" xmlns="http://www.w3.org/2000/svg" xmlns:xlink="http://www.w3.org/1999/xlink">
<g id="graph0" class="graph" transform="scale(1 1) rotate(0) translate(4 185.6206)">
<title>G</title>
<polygon fill="#ffffff" stroke="transparent" points="-4,4 -4,-185.6206 328.0079,-185.6206 328.0079,4 -4,4"/>
<!-- E -->
<g id="node1" class="node">
<title>E</title>
<ellipse fill="none" stroke="#000000" cx="18" cy="-91.6206" rx="18" ry="18"/>
<text text-anchor="middle" x="18" y="-87.4206" font-family="Times,serif" font-size="14.00" fill="#000000">E</text>
</g>
<!-- L -->
<g id="node2" class="node">
<title>L</title>
<ellipse fill="none" stroke="#000000" cx="162" cy="-91.6206" rx="18" ry="18"/>
<text text-anchor="middle" x="162" y="-87.4206" font-family="Times,serif" font-size="14.00" fill="#000000">L</text>
</g>
<!-- E&#45;&#45;L -->
<g id="edge1" class="edge">
<title>E&#45;&#45;L</title>
<path fill="none" stroke="#000000" d="M36.2377,-91.6206C63.9367,-91.6206 116.2995,-91.6206 143.9104,-91.6206"/>
<text text-anchor="middle" x="86.574" y="-95.8206" font-family="Times,serif" font-size="14.00" fill="#000000">8</text>
</g>
<!-- M -->
<g id="node3" class="node">
<title>M</title>
<ellipse fill="none" stroke="#000000" cx="234" cy="-19.6206" rx="19.7419" ry="19.7419"/>
<text text-anchor="middle" x="234" y="-15.4206" font-family="Times,serif" font-size="14.00" fill="#000000">M</text>
</g>
<!-- E&#45;&#45;M -->
<g id="edge2" class="edge">
<title>E&#45;&#45;M</title>
<path fill="none" stroke="#000000" d="M35.3111,-85.8502C75.3548,-72.5023 174.1003,-39.5871 215.3853,-25.8255"/>
<text text-anchor="middle" x="118.3482" y="-60.0378" font-family="Times,serif" font-size="14.00" fill="#000000">10</text>
</g>
<!-- S -->
<g id="node5" class="node">
<title>S</title>
<ellipse fill="none" stroke="#000000" cx="234" cy="-163.6206" rx="18" ry="18"/>
<text text-anchor="middle" x="234" y="-159.4206" font-family="Times,serif" font-size="14.00" fill="#000000">S</text>
</g>
<!-- E&#45;&#45;S -->
<g id="edge3" class="edge">
<title>E&#45;&#45;S</title>
<path fill="none" stroke="#000000" d="M35.3111,-97.3909C75.8553,-110.9057 176.5781,-144.4799 216.9063,-157.9227"/>
<text text-anchor="middle" x="119.1087" y="-131.8568" font-family="Times,serif" font-size="14.00" fill="#000000">10</text>
</g>
<!-- T -->
<g id="node6" class="node">
<title>T</title>
<ellipse fill="none" stroke="#000000" cx="90" cy="-163.6206" rx="18" ry="18"/>
<text text-anchor="middle" x="90" y="-159.4206" font-family="Times,serif" font-size="14.00" fill="#000000">T</text>
</g>
<!-- E&#45;&#45;T -->
<g id="edge4" class="edge">
<title>E&#45;&#45;T</title>
<path fill="none" stroke="#000000" d="M30.8722,-104.4927C43.9776,-117.5981 64.1743,-137.7948 77.2393,-150.8598"/>
<text text-anchor="middle" x="50.5557" y="-131.8763" font-family="Times,serif" font-size="14.00" fill="#000000">4</text>
</g>
<!-- L&#45;&#45;M -->
<g id="edge5" class="edge">
<title>L&#45;&#45;M</title>
<path fill="none" stroke="#000000" d="M174.8722,-78.7484C187.4922,-66.1284 206.6879,-46.9326 219.759,-33.8616"/>
<text text-anchor="middle" x="193.8156" y="-60.505" font-family="Times,serif" font-size="14.00" fill="#000000">7</text>
</g>
<!-- N -->
<g id="node4" class="node">
<title>N</title>
<ellipse fill="none" stroke="#000000" cx="306" cy="-91.6206" rx="18.0157" ry="18.0157"/>
<text text-anchor="middle" x="306" y="-87.4206" font-family="Times,serif" font-size="14.00" fill="#000000">N</text>
</g>
<!-- L&#45;&#45;N -->
<g id="edge6" class="edge">
<title>L&#45;&#45;N</title>
<path fill="none" stroke="#000000" d="M180.2377,-91.6206C207.9367,-91.6206 260.2996,-91.6206 287.9104,-91.6206"/>
<text text-anchor="middle" x="230.574" y="-95.8206" font-family="Times,serif" font-size="14.00" fill="#000000">2</text>
</g>
<!-- L&#45;&#45;S -->
<g id="edge7" class="edge">
<title>L&#45;&#45;S</title>
<path fill="none" stroke="#000000" d="M174.8722,-104.4927C187.9776,-117.5981 208.1743,-137.7948 221.2393,-150.8598"/>
<text text-anchor="middle" x="194.5557" y="-131.8763" font-family="Times,serif" font-size="14.00" fill="#000000">5</text>
</g>
<!-- M&#45;&#45;N -->
<g id="edge8" class="edge">
<title>M&#45;&#45;N</title>
<path fill="none" stroke="#000000" d="M247.8823,-33.5029C260.9588,-46.5794 280.3919,-66.0125 293.1279,-78.7484"/>
<text text-anchor="middle" x="267.0051" y="-60.3256" font-family="Times,serif" font-size="14.00" fill="#000000">4</text>
</g>
<!-- N&#45;&#45;S -->
<g id="edge9" class="edge">
<title>N&#45;&#45;S</title>
<path fill="none" stroke="#000000" d="M293.1279,-104.4927C280.0225,-117.5981 259.8257,-137.7948 246.7607,-150.8598"/>
<text text-anchor="middle" x="266.4443" y="-131.8763" font-family="Times,serif" font-size="14.00" fill="#000000">8</text>
</g>
<!-- S&#45;&#45;T -->
<g id="edge10" class="edge">
<title>S&#45;&#45;T</title>
<path fill="none" stroke="#000000" d="M215.7623,-163.6206C188.0633,-163.6206 135.7005,-163.6206 108.0896,-163.6206"/>
<text text-anchor="middle" x="158.426" y="-167.8206" font-family="Times,serif" font-size="14.00" fill="#000000">8</text>
</g>
</g>
</svg>
