P1
# Un exemple bitmap de la lettre "G"
5 7
1 0 0 0 1 0 1 1 1 0 0 1 1 1 1 0 1 1 
1 1 0 1 1 0 0 0 1 1 1 0 1 0 0 0 1